<svg width="128" height="128" viewBox="0 0 128 128" role="img" xmlns="http://www.w3.org/2000/svg">
  <title>Alembic package icon</title>
  <desc>An alembic distillation still in cream linework with bronze distillate, on a warm charcoal rounded tile.</desc>
  <rect x="0" y="0" width="128" height="128" rx="26" fill="#241f1b"/>

  <clipPath id="flaskClip"><circle cx="60" cy="82" r="30"/></clipPath>
  <g clip-path="url(#flaskClip)">
    <rect x="30" y="88" width="60" height="24" fill="#c47a3d"/>
  </g>

  <g fill="none" stroke="#f3ead8" stroke-width="4" stroke-linecap="round" stroke-linejoin="round">
    <circle cx="60" cy="82" r="30"/>
    <path d="M48 55 L48 40 M72 55 L72 40"/>
    <path d="M48 40 C37 39 31 30 31 21 C31 9 43 4 60 4 C77 4 89 9 89 21 C89 30 83 39 72 40"/>
    <path d="M86 30 C103 35 112 49 112 68 C112 77 110 83 106 89"/>
  </g>

  <path d="M105 94 C101 99 101 105 105 107 C109 105 109 99 105 94 Z" fill="#c47a3d"/>
  <circle cx="103" cy="118" r="3" fill="#c47a3d"/>
</svg>
